<mxfile host="Electron" agent="Mozilla/5.0 (Windows NT 10.0; Win64; x64) AppleWebKit/537.36 (KHTML, like Gecko) draw.io/27.0.5 Chrome/134.0.6998.205 Electron/35.3.0 Safari/537.36" version="27.0.5">
  <diagram name="Page-1" id="CzO1Y2tDC1M4GgncYlMh">
    <mxGraphModel dx="692" dy="501" grid="1" gridSize="10" guides="1" tooltips="1" connect="1" arrows="1" fold="1" page="1" pageScale="1" pageWidth="850" pageHeight="1100" math="0" shadow="0">
      <root>
        <mxCell id="0" />
        <mxCell id="1" parent="0" />
        <mxCell id="QVrMILUdrdBnr2rRqYHB-4" value="" style="rounded=0;whiteSpace=wrap;html=1;strokeColor=#666666;fontColor=#333333;fillColor=none;" vertex="1" parent="1">
          <mxGeometry x="22.17" y="140" width="120" height="280" as="geometry" />
        </mxCell>
        <mxCell id="QVrMILUdrdBnr2rRqYHB-5" value="&lt;font style=&quot;font-size: 18px;&quot;&gt;Sources&lt;/font&gt;&lt;div&gt;&lt;br&gt;&lt;/div&gt;" style="rounded=1;whiteSpace=wrap;html=1;strokeColor=#E07A5F;fontColor=#393C56;fillColor=none;" vertex="1" parent="1">
          <mxGeometry x="20" y="110" width="120" height="30" as="geometry" />
        </mxCell>
        <mxCell id="QVrMILUdrdBnr2rRqYHB-6" value="" style="rounded=0;whiteSpace=wrap;html=1;strokeColor=#E07A5F;fontColor=#393C56;fillColor=none;" vertex="1" parent="1">
          <mxGeometry x="159.5" y="140" width="400" height="690" as="geometry" />
        </mxCell>
        <mxCell id="QVrMILUdrdBnr2rRqYHB-7" value="&lt;div&gt;&lt;span style=&quot;font-size: 18px;&quot;&gt;Data Warehouse&lt;/span&gt;&lt;/div&gt;" style="rounded=1;whiteSpace=wrap;html=1;strokeColor=#E07A5F;fontColor=#393C56;fillColor=none;" vertex="1" parent="1">
          <mxGeometry x="260" y="110" width="160" height="30" as="geometry" />
        </mxCell>
        <mxCell id="QVrMILUdrdBnr2rRqYHB-8" value="" style="rounded=0;whiteSpace=wrap;html=1;strokeColor=#666666;fontColor=#333333;fillColor=none;" vertex="1" parent="1">
          <mxGeometry x="570" y="130" width="120" height="460" as="geometry" />
        </mxCell>
        <mxCell id="QVrMILUdrdBnr2rRqYHB-9" value="&lt;div&gt;&lt;span style=&quot;font-size: 18px;&quot;&gt;Consume&lt;/span&gt;&lt;/div&gt;" style="rounded=1;whiteSpace=wrap;html=1;strokeColor=#E07A5F;fontColor=#393C56;fillColor=none;" vertex="1" parent="1">
          <mxGeometry x="570" y="100" width="120" height="30" as="geometry" />
        </mxCell>
        <mxCell id="QVrMILUdrdBnr2rRqYHB-10" value="&lt;font style=&quot;font-size: 13px;&quot;&gt;Bronze Layer&lt;/font&gt;" style="rounded=0;whiteSpace=wrap;html=1;strokeColor=#d79b00;fillColor=#ffe6cc;" vertex="1" parent="1">
          <mxGeometry x="170" y="150" width="120" height="30" as="geometry" />
        </mxCell>
        <mxCell id="QVrMILUdrdBnr2rRqYHB-11" style="edgeStyle=orthogonalEdgeStyle;rounded=0;orthogonalLoop=1;jettySize=auto;html=1;exitX=0.5;exitY=1;exitDx=0;exitDy=0;strokeColor=#E07A5F;fontColor=#393C56;fillColor=#F2CC8F;" edge="1" parent="1" source="QVrMILUdrdBnr2rRqYHB-10" target="QVrMILUdrdBnr2rRqYHB-10">
          <mxGeometry relative="1" as="geometry" />
        </mxCell>
        <mxCell id="QVrMILUdrdBnr2rRqYHB-13" value="&lt;font style=&quot;font-size: 13px;&quot;&gt;SilverLayer&lt;/font&gt;" style="rounded=0;whiteSpace=wrap;html=1;strokeColor=#666666;fillColor=#f5f5f5;fontColor=#333333;" vertex="1" parent="1">
          <mxGeometry x="300" y="150" width="120" height="30" as="geometry" />
        </mxCell>
        <mxCell id="QVrMILUdrdBnr2rRqYHB-14" value="" style="rounded=0;whiteSpace=wrap;html=1;strokeColor=#666666;fillColor=none;gradientColor=#b3b3b3;" vertex="1" parent="1">
          <mxGeometry x="300" y="180" width="120" height="540" as="geometry" />
        </mxCell>
        <mxCell id="QVrMILUdrdBnr2rRqYHB-15" value="&lt;font style=&quot;font-size: 13px;&quot;&gt;Gold Layer&lt;/font&gt;" style="rounded=0;whiteSpace=wrap;html=1;strokeColor=#d79b00;fillColor=#ffcd28;gradientColor=#ffa500;" vertex="1" parent="1">
          <mxGeometry x="430" y="150" width="120" height="30" as="geometry" />
        </mxCell>
        <mxCell id="QVrMILUdrdBnr2rRqYHB-16" value="" style="rounded=0;whiteSpace=wrap;html=1;strokeColor=#d79b00;fillColor=none;gradientColor=#ffa500;" vertex="1" parent="1">
          <mxGeometry x="430" y="180" width="120" height="580" as="geometry" />
        </mxCell>
        <mxCell id="QVrMILUdrdBnr2rRqYHB-19" value="" style="group" vertex="1" connectable="0" parent="1">
          <mxGeometry x="40" y="170" width="54.349999999999994" height="50" as="geometry" />
        </mxCell>
        <mxCell id="QVrMILUdrdBnr2rRqYHB-17" value="" style="image;aspect=fixed;html=1;points=[];align=center;fontSize=12;image=img/lib/azure2/general/Folder_Blank.svg;strokeColor=#E07A5F;fontColor=#393C56;fillColor=#F2CC8F;" vertex="1" parent="QVrMILUdrdBnr2rRqYHB-19">
          <mxGeometry width="49.29" height="40" as="geometry" />
        </mxCell>
        <mxCell id="QVrMILUdrdBnr2rRqYHB-18" value="" style="image;aspect=fixed;html=1;points=[];align=center;fontSize=12;image=img/lib/azure2/general/File.svg;strokeColor=#E07A5F;fontColor=#393C56;fillColor=#F2CC8F;" vertex="1" parent="QVrMILUdrdBnr2rRqYHB-19">
          <mxGeometry x="30" y="20" width="24.35" height="30" as="geometry" />
        </mxCell>
        <mxCell id="QVrMILUdrdBnr2rRqYHB-20" value="CRM" style="rounded=0;whiteSpace=wrap;html=1;strokeColor=#E07A5F;fontColor=#393C56;fillColor=none;" vertex="1" parent="1">
          <mxGeometry x="50" y="220" width="60" height="30" as="geometry" />
        </mxCell>
        <mxCell id="QVrMILUdrdBnr2rRqYHB-21" value="" style="group" vertex="1" connectable="0" parent="1">
          <mxGeometry x="40" y="280" width="54.349999999999994" height="50" as="geometry" />
        </mxCell>
        <mxCell id="QVrMILUdrdBnr2rRqYHB-22" value="" style="image;aspect=fixed;html=1;points=[];align=center;fontSize=12;image=img/lib/azure2/general/Folder_Blank.svg;strokeColor=#E07A5F;fontColor=#393C56;fillColor=#F2CC8F;" vertex="1" parent="QVrMILUdrdBnr2rRqYHB-21">
          <mxGeometry width="49.29" height="40" as="geometry" />
        </mxCell>
        <mxCell id="QVrMILUdrdBnr2rRqYHB-23" value="" style="image;aspect=fixed;html=1;points=[];align=center;fontSize=12;image=img/lib/azure2/general/File.svg;strokeColor=#E07A5F;fontColor=#393C56;fillColor=#F2CC8F;" vertex="1" parent="QVrMILUdrdBnr2rRqYHB-21">
          <mxGeometry x="30" y="20" width="24.35" height="30" as="geometry" />
        </mxCell>
        <mxCell id="QVrMILUdrdBnr2rRqYHB-24" value="ERP" style="rounded=0;whiteSpace=wrap;html=1;strokeColor=#E07A5F;fontColor=#393C56;fillColor=none;" vertex="1" parent="1">
          <mxGeometry x="50" y="330" width="60" height="30" as="geometry" />
        </mxCell>
        <mxCell id="QVrMILUdrdBnr2rRqYHB-30" value="" style="shape=link;html=1;rounded=0;strokeColor=#E07A5F;fontColor=#393C56;fillColor=#F2CC8F;entryX=0.987;entryY=0.825;entryDx=0;entryDy=0;entryPerimeter=0;exitX=-0.024;exitY=0.808;exitDx=0;exitDy=0;exitPerimeter=0;" edge="1" parent="1" source="QVrMILUdrdBnr2rRqYHB-4" target="QVrMILUdrdBnr2rRqYHB-4">
          <mxGeometry width="100" relative="1" as="geometry">
            <mxPoint x="30" y="370" as="sourcePoint" />
            <mxPoint x="130" y="370" as="targetPoint" />
            <Array as="points">
              <mxPoint x="30" y="370" />
            </Array>
          </mxGeometry>
        </mxCell>
        <mxCell id="QVrMILUdrdBnr2rRqYHB-31" value="&lt;font style=&quot;font-size: 11px;&quot;&gt;&lt;b&gt;Object Type: &lt;/b&gt;CSV File&lt;/font&gt;&lt;div&gt;&lt;font style=&quot;font-size: 10px;&quot;&gt;&lt;b style=&quot;&quot;&gt;Interface: &lt;/b&gt;Files in Folder&lt;/font&gt;&lt;/div&gt;" style="text;html=1;align=center;verticalAlign=middle;whiteSpace=wrap;rounded=0;fontColor=#393C56;" vertex="1" parent="1">
          <mxGeometry x="20" y="380" width="120" height="40" as="geometry" />
        </mxCell>
        <mxCell id="QVrMILUdrdBnr2rRqYHB-32" value="" style="html=1;verticalLabelPosition=bottom;align=center;labelBackgroundColor=#ffffff;verticalAlign=top;strokeWidth=2;strokeColor=#0080F0;shadow=0;dashed=0;shape=mxgraph.ios7.icons.data;fontColor=#393C56;fillColor=#F2CC8F;" vertex="1" parent="1">
          <mxGeometry x="210" y="230" width="40" height="60" as="geometry" />
        </mxCell>
        <mxCell id="QVrMILUdrdBnr2rRqYHB-33" value="" style="html=1;verticalLabelPosition=bottom;align=center;labelBackgroundColor=#ffffff;verticalAlign=top;strokeWidth=2;strokeColor=#666666;shadow=0;dashed=0;shape=mxgraph.ios7.icons.data;fillColor=#f5f5f5;gradientColor=#b3b3b3;" vertex="1" parent="1">
          <mxGeometry x="340" y="230" width="40" height="60" as="geometry" />
        </mxCell>
        <mxCell id="QVrMILUdrdBnr2rRqYHB-34" value="" style="html=1;verticalLabelPosition=bottom;align=center;labelBackgroundColor=#ffffff;verticalAlign=top;strokeWidth=2;strokeColor=#d79b00;shadow=0;dashed=0;shape=mxgraph.ios7.icons.data;fillColor=#ffcd28;gradientColor=#ffa500;" vertex="1" parent="1">
          <mxGeometry x="470" y="230" width="40" height="60" as="geometry" />
        </mxCell>
        <mxCell id="QVrMILUdrdBnr2rRqYHB-36" value="" style="html=1;shadow=0;dashed=0;align=center;verticalAlign=middle;shape=mxgraph.arrows2.sharpArrow;dy1=0.67;dx1=18;dx2=18;notch=0;strokeColor=#6c8ebf;fillColor=#dae8fc;gradientColor=#7ea6e0;" vertex="1" parent="1">
          <mxGeometry x="130" y="250" width="50" height="30" as="geometry" />
        </mxCell>
        <mxCell id="QVrMILUdrdBnr2rRqYHB-37" value="" style="html=1;shadow=0;dashed=0;align=center;verticalAlign=middle;shape=mxgraph.arrows2.sharpArrow;dy1=0.67;dx1=18;dx2=18;notch=0;strokeColor=#6c8ebf;fillColor=#dae8fc;gradientColor=#7ea6e0;" vertex="1" parent="1">
          <mxGeometry x="540" y="245" width="50" height="30" as="geometry" />
        </mxCell>
        <mxCell id="QVrMILUdrdBnr2rRqYHB-38" value="" style="rounded=0;whiteSpace=wrap;html=1;strokeColor=#d6b656;fillColor=none;" vertex="1" parent="1">
          <mxGeometry x="170" y="180" width="120" height="360" as="geometry" />
        </mxCell>
        <mxCell id="QVrMILUdrdBnr2rRqYHB-41" value="" style="html=1;shadow=0;dashed=0;align=center;verticalAlign=middle;shape=mxgraph.arrows2.sharpArrow;dy1=0.67;dx1=18;dx2=18;notch=0;strokeColor=#6c8ebf;fillColor=#dae8fc;gradientColor=#7ea6e0;" vertex="1" parent="1">
          <mxGeometry x="270" y="245" width="50" height="30" as="geometry" />
        </mxCell>
        <mxCell id="QVrMILUdrdBnr2rRqYHB-42" value="" style="html=1;shadow=0;dashed=0;align=center;verticalAlign=middle;shape=mxgraph.arrows2.sharpArrow;dy1=0.67;dx1=18;dx2=18;notch=0;strokeColor=#6c8ebf;fillColor=#dae8fc;gradientColor=#7ea6e0;" vertex="1" parent="1">
          <mxGeometry x="400" y="245" width="50" height="30" as="geometry" />
        </mxCell>
        <mxCell id="QVrMILUdrdBnr2rRqYHB-43" value="&lt;b&gt;Raw Data&lt;/b&gt;" style="text;html=1;align=center;verticalAlign=middle;whiteSpace=wrap;rounded=0;fontColor=#393C56;" vertex="1" parent="1">
          <mxGeometry x="200" y="290" width="60" height="30" as="geometry" />
        </mxCell>
        <mxCell id="QVrMILUdrdBnr2rRqYHB-44" value="&lt;b&gt;Cleaned Standadized Data&lt;/b&gt;" style="text;html=1;align=center;verticalAlign=middle;whiteSpace=wrap;rounded=0;fontColor=#393C56;" vertex="1" parent="1">
          <mxGeometry x="330" y="300" width="60" height="30" as="geometry" />
        </mxCell>
        <mxCell id="QVrMILUdrdBnr2rRqYHB-45" value="&lt;b&gt;Business Ready Data&lt;/b&gt;" style="text;html=1;align=center;verticalAlign=middle;whiteSpace=wrap;rounded=0;fontColor=#393C56;" vertex="1" parent="1">
          <mxGeometry x="460" y="300" width="60" height="30" as="geometry" />
        </mxCell>
        <mxCell id="QVrMILUdrdBnr2rRqYHB-46" value="" style="shape=link;html=1;rounded=0;strokeColor=#E07A5F;fontColor=#393C56;fillColor=#F2CC8F;entryX=0.987;entryY=0.825;entryDx=0;entryDy=0;entryPerimeter=0;exitX=-0.024;exitY=0.808;exitDx=0;exitDy=0;exitPerimeter=0;" edge="1" parent="1">
          <mxGeometry width="100" relative="1" as="geometry">
            <mxPoint x="168" y="318" as="sourcePoint" />
            <mxPoint x="290" y="323" as="targetPoint" />
            <Array as="points">
              <mxPoint x="179" y="322" />
            </Array>
          </mxGeometry>
        </mxCell>
        <mxCell id="QVrMILUdrdBnr2rRqYHB-47" value="&lt;font style=&quot;font-size: 11px;&quot;&gt;&lt;b&gt;Object Type: Tables&lt;/b&gt;&lt;/font&gt;&lt;div&gt;&lt;b style=&quot;font-size: 10px; background-color: transparent; color: light-dark(rgb(57, 60, 86), rgb(182, 184, 207));&quot;&gt;Load:&amp;nbsp;&lt;/b&gt;&lt;/div&gt;&lt;div&gt;&lt;div&gt;&lt;ul&gt;&lt;li&gt;&lt;span style=&quot;font-size: 10px; background-color: transparent; color: light-dark(rgb(57, 60, 86), rgb(182, 184, 207));&quot;&gt;Batch Processing&lt;/span&gt;&lt;/li&gt;&lt;li&gt;&lt;font style=&quot;font-size: 10px;&quot;&gt;Full Load&lt;/font&gt;&lt;/li&gt;&lt;li&gt;&lt;font style=&quot;font-size: 10px;&quot;&gt;Tuncate $ insert&lt;/font&gt;&lt;/li&gt;&lt;/ul&gt;&lt;span style=&quot;font-size: 10px;&quot;&gt;No &lt;b&gt;Transforamtion&lt;/b&gt;&lt;/span&gt;&lt;/div&gt;&lt;div&gt;&lt;span style=&quot;font-size: 10px;&quot;&gt;&lt;br&gt;&lt;/span&gt;&lt;/div&gt;&lt;div&gt;&lt;span style=&quot;font-size: 10px;&quot;&gt;&lt;b&gt;Data Model: &lt;/b&gt;None(as-is)&lt;/span&gt;&lt;/div&gt;&lt;/div&gt;" style="text;html=1;align=center;verticalAlign=middle;whiteSpace=wrap;rounded=0;fontColor=#393C56;" vertex="1" parent="1">
          <mxGeometry x="170" y="332" width="119" height="158" as="geometry" />
        </mxCell>
        <mxCell id="QVrMILUdrdBnr2rRqYHB-48" value="" style="shape=link;html=1;rounded=0;strokeColor=#E07A5F;fontColor=#393C56;fillColor=#F2CC8F;entryX=0.987;entryY=0.825;entryDx=0;entryDy=0;entryPerimeter=0;exitX=-0.024;exitY=0.808;exitDx=0;exitDy=0;exitPerimeter=0;" edge="1" parent="1">
          <mxGeometry width="100" relative="1" as="geometry">
            <mxPoint x="298" y="350" as="sourcePoint" />
            <mxPoint x="420" y="355" as="targetPoint" />
            <Array as="points">
              <mxPoint x="309" y="354" />
            </Array>
          </mxGeometry>
        </mxCell>
        <mxCell id="QVrMILUdrdBnr2rRqYHB-49" value="&lt;font style=&quot;font-size: 11px;&quot;&gt;&lt;b&gt;Object Type: Tables&lt;/b&gt;&lt;/font&gt;&lt;div&gt;&lt;b style=&quot;font-size: 10px; background-color: transparent; color: light-dark(rgb(57, 60, 86), rgb(182, 184, 207));&quot;&gt;Load:&amp;nbsp;&lt;/b&gt;&lt;/div&gt;&lt;div&gt;&lt;div&gt;&lt;ul&gt;&lt;li&gt;&lt;span style=&quot;font-size: 10px; background-color: transparent; color: light-dark(rgb(57, 60, 86), rgb(182, 184, 207));&quot;&gt;Batch Processing&lt;/span&gt;&lt;/li&gt;&lt;li&gt;&lt;font style=&quot;font-size: 10px;&quot;&gt;Full Load&lt;/font&gt;&lt;/li&gt;&lt;li&gt;&lt;font style=&quot;font-size: 10px;&quot;&gt;Tuncate $ insert&lt;/font&gt;&lt;/li&gt;&lt;/ul&gt;&lt;span style=&quot;font-size: 10px;&quot;&gt;&lt;b&gt;Transforamtion:&lt;/b&gt;&lt;/span&gt;&lt;/div&gt;&lt;div&gt;&lt;ul&gt;&lt;li&gt;&lt;span style=&quot;font-size: 10px;&quot;&gt;&lt;b&gt;Data Cleaning&lt;/b&gt;&lt;/span&gt;&lt;/li&gt;&lt;li&gt;&lt;span style=&quot;font-size: 10px;&quot;&gt;&lt;b&gt;Data Standadization&lt;/b&gt;&lt;/span&gt;&lt;/li&gt;&lt;li&gt;&lt;span style=&quot;font-size: 10px;&quot;&gt;&lt;b&gt;Data Normalization&lt;/b&gt;&lt;/span&gt;&lt;/li&gt;&lt;li&gt;&lt;span style=&quot;font-size: 10px;&quot;&gt;&lt;b&gt;Derived Columns&lt;/b&gt;&lt;/span&gt;&lt;/li&gt;&lt;li&gt;&lt;b style=&quot;font-size: 10px; background-color: transparent; color: light-dark(rgb(57, 60, 86), rgb(182, 184, 207));&quot;&gt;Data enrichment&lt;/b&gt;&lt;/li&gt;&lt;/ul&gt;&lt;/div&gt;&lt;div&gt;&lt;b style=&quot;font-size: 10px; background-color: transparent; color: light-dark(rgb(57, 60, 86), rgb(182, 184, 207));&quot;&gt;&lt;br&gt;&lt;/b&gt;&lt;/div&gt;&lt;div&gt;&lt;span style=&quot;font-size: 10px;&quot;&gt;&lt;br&gt;&lt;/span&gt;&lt;/div&gt;&lt;div&gt;&lt;span style=&quot;font-size: 10px;&quot;&gt;&lt;b&gt;Data Model: &lt;/b&gt;None(as-is)&lt;/span&gt;&lt;/div&gt;&lt;/div&gt;" style="text;html=1;align=center;verticalAlign=middle;whiteSpace=wrap;rounded=0;fontColor=#393C56;" vertex="1" parent="1">
          <mxGeometry x="300" y="450" width="119" height="210" as="geometry" />
        </mxCell>
        <mxCell id="QVrMILUdrdBnr2rRqYHB-50" value="" style="shape=link;html=1;rounded=0;strokeColor=#E07A5F;fontColor=#393C56;fillColor=#F2CC8F;entryX=0.987;entryY=0.825;entryDx=0;entryDy=0;entryPerimeter=0;exitX=-0.024;exitY=0.808;exitDx=0;exitDy=0;exitPerimeter=0;" edge="1" parent="1">
          <mxGeometry width="100" relative="1" as="geometry">
            <mxPoint x="428" y="370" as="sourcePoint" />
            <mxPoint x="550" y="375" as="targetPoint" />
            <Array as="points">
              <mxPoint x="439" y="374" />
            </Array>
          </mxGeometry>
        </mxCell>
        <mxCell id="QVrMILUdrdBnr2rRqYHB-51" value="&lt;font style=&quot;font-size: 11px;&quot;&gt;&lt;b&gt;Object Type: Views&lt;/b&gt;&lt;/font&gt;&lt;div&gt;&lt;b style=&quot;font-size: 10px; background-color: transparent; color: light-dark(rgb(57, 60, 86), rgb(182, 184, 207));&quot;&gt;NO Load:&amp;nbsp;&lt;/b&gt;&lt;/div&gt;&lt;div&gt;&lt;div&gt;&lt;span style=&quot;font-size: 10px;&quot;&gt;&lt;b&gt;Transforamtion:&lt;/b&gt;&lt;/span&gt;&lt;/div&gt;&lt;div&gt;&lt;ul&gt;&lt;li&gt;&lt;span style=&quot;font-size: 10px;&quot;&gt;&lt;b&gt;Data Integration&lt;/b&gt;&lt;/span&gt;&lt;/li&gt;&lt;li&gt;&lt;span style=&quot;font-size: 10px;&quot;&gt;&lt;b&gt;Aggregations&lt;/b&gt;&lt;/span&gt;&lt;/li&gt;&lt;li&gt;&lt;span style=&quot;font-size: 10px;&quot;&gt;&lt;b&gt;Business Logic&lt;/b&gt;&lt;/span&gt;&lt;/li&gt;&lt;/ul&gt;&lt;/div&gt;&lt;div&gt;&lt;b style=&quot;font-size: 10px; background-color: transparent; color: light-dark(rgb(57, 60, 86), rgb(182, 184, 207));&quot;&gt;&lt;br&gt;&lt;/b&gt;&lt;/div&gt;&lt;div&gt;&lt;span style=&quot;font-size: 10px;&quot;&gt;&lt;br&gt;&lt;/span&gt;&lt;/div&gt;&lt;div&gt;&lt;span style=&quot;font-size: 10px;&quot;&gt;&lt;b&gt;Data Model:&amp;nbsp;&lt;/b&gt;&lt;/span&gt;&lt;/div&gt;&lt;/div&gt;&lt;div&gt;&lt;ul&gt;&lt;li&gt;&lt;span style=&quot;font-size: 10px;&quot;&gt;&lt;b&gt;Star Schema&lt;/b&gt;&lt;/span&gt;&lt;/li&gt;&lt;li&gt;&lt;span style=&quot;font-size: 10px;&quot;&gt;&lt;b&gt;Flat Tables&lt;/b&gt;&lt;/span&gt;&lt;/li&gt;&lt;li&gt;&lt;span style=&quot;font-size: 10px;&quot;&gt;&lt;b&gt;Aggregated Tables&lt;/b&gt;&lt;/span&gt;&lt;/li&gt;&lt;li&gt;&lt;span style=&quot;font-size: 10px;&quot;&gt;&lt;b&gt;&lt;br&gt;&lt;/b&gt;&lt;/span&gt;&lt;/li&gt;&lt;/ul&gt;&lt;/div&gt;" style="text;html=1;align=center;verticalAlign=middle;whiteSpace=wrap;rounded=0;fontColor=#393C56;" vertex="1" parent="1">
          <mxGeometry x="430" y="470" width="119" height="210" as="geometry" />
        </mxCell>
        <mxCell id="QVrMILUdrdBnr2rRqYHB-52" value="" style="image;aspect=fixed;html=1;points=[];align=center;fontSize=12;image=img/lib/azure2/analytics/Power_BI_Embedded.svg;strokeColor=#E07A5F;fontColor=#393C56;fillColor=#F2CC8F;" vertex="1" parent="1">
          <mxGeometry x="604.5" y="162" width="51" height="68" as="geometry" />
        </mxCell>
        <mxCell id="QVrMILUdrdBnr2rRqYHB-53" value="" style="image;sketch=0;aspect=fixed;html=1;points=[];align=center;fontSize=12;image=img/lib/mscae/Machine_Learning_Studio_Web_Service_Plans.svg;strokeColor=#E07A5F;fontColor=#393C56;fillColor=#F2CC8F;" vertex="1" parent="1">
          <mxGeometry x="620" y="270" width="50" height="50" as="geometry" />
        </mxCell>
      </root>
    </mxGraphModel>
  </diagram>
</mxfile>
